<svg width="75" height="75" viewBox="0 0 75 75" fill="none" xmlns="http://www.w3.org/2000/svg">
<path d="M37.5 0C16.8227 0 0 16.8227 0 37.5C0 58.1773 16.8227 75 37.5 75C58.1773 75 75 58.1773 75 37.5C75 16.8227 58.1773 0 37.5 0ZM37.5 60.5769C33.732 60.5769 30.7356 58.9796 30.3335 55.6046C30.3229 55.5037 30.3336 55.4017 30.3651 55.3053C30.3965 55.2089 30.4479 55.1201 30.516 55.0449C30.5841 54.9697 30.6672 54.9097 30.76 54.8689C30.8529 54.828 30.9533 54.8071 31.0547 54.8077H43.9363C44.0387 54.807 44.1402 54.828 44.2338 54.8696C44.3275 54.9111 44.4112 54.9721 44.4795 55.0485C44.5477 55.125 44.5989 55.215 44.6295 55.3128C44.6602 55.4105 44.6698 55.5137 44.6575 55.6154C44.1977 58.9273 41.2284 60.5769 37.5 60.5769ZM55.1683 51.9231H19.8317C17.6971 51.9231 16.5865 49.2188 17.8143 47.7764C20.7584 44.2897 22.8389 42.8239 22.8389 33.2091C22.8389 24.3984 27.4796 21.2722 31.3125 19.747C31.5763 19.6371 31.8141 19.4731 32.0107 19.2657C32.2072 19.0583 32.3581 18.812 32.4537 18.5427C33.119 16.3341 35.0012 14.4231 37.5 14.4231C39.9988 14.4231 41.8774 16.3341 42.5481 18.5445C42.6443 18.8137 42.7956 19.0599 42.9924 19.2673C43.1893 19.4747 43.4272 19.6387 43.6911 19.7488C47.515 21.2704 52.1647 24.402 52.1647 33.2109C52.1647 42.8257 54.2434 44.2915 57.1875 47.7782C58.4026 49.2188 57.2903 51.9231 55.1683 51.9231Z" fill="#BB1318" stroke="#BB1318" stroke-width="0.00256"/>
</svg>
