<svg width="75" height="75" viewBox="0 0 75 75" fill="none" xmlns="http://www.w3.org/2000/svg">
<path d="M66.9234 47.9409C58.1013 54.2172 46.5297 54.9144 37.1156 50M8.07641 27.059C16.92 20.7677 28.5264 20.0824 37.9525 25.0359M48.0428 44.1384C57.0638 38.4531 62.2872 28.0442 61.2531 17.2257M26.8182 30.9491C17.8822 36.6534 12.7175 47.0113 13.7462 57.7744M48.5216 31.6781C48.1059 21.0266 41.7031 11.3026 31.8191 6.78819M26.4863 43.5175C26.9723 54.0925 33.3572 63.725 43.1803 68.2119M59.5969 15.4029C71.8009 27.6068 71.8009 47.3931 59.5969 59.5969C47.3931 71.8009 27.6068 71.8009 15.4029 59.5969C3.19903 47.3931 3.19903 27.6068 15.4029 15.4029C27.6068 3.19903 47.3931 3.19903 59.5969 15.4029ZM46.3387 28.6612C51.2203 33.5428 51.2203 41.4572 46.3387 46.3387C41.4572 51.2203 33.5428 51.2203 28.6612 46.3387C23.7796 41.4572 23.7796 33.5428 28.6612 28.6612C33.5428 23.7796 41.4572 23.7796 46.3387 28.6612Z" stroke="#040774" stroke-width="7.424" stroke-linecap="round" stroke-linejoin="round"/>
</svg>
