<svg width="45" height="45" viewBox="0 0 45 45" fill="none" xmlns="http://www.w3.org/2000/svg">
<g clip-path="url(#clip0_744_46)">
<path fill-rule="evenodd" clip-rule="evenodd" d="M42.1875 22.5C42.1875 33.3731 33.3703 42.1875 22.5 42.1875C11.6297 42.1875 2.8125 33.3731 2.8125 22.5C2.8125 11.6269 11.6297 2.8125 22.5 2.8125C33.3703 2.8125 42.1875 11.6269 42.1875 22.5ZM0 22.5C0 34.927 10.0687 45 22.5 45C34.9313 45 45 34.927 45 22.5C45 10.073 34.9313 0 22.5 0C10.0687 0 0 10.073 0 22.5ZM13.3031 21.2639C12.9656 21.6014 12.8671 22.0627 12.9515 22.5C12.8671 22.9373 12.9656 23.3986 13.3031 23.7361L21.2625 31.6898C21.8109 32.2397 22.6969 32.2397 23.2594 31.6898C23.8079 31.1428 23.8079 30.2513 23.2594 29.7014L17.4516 23.9062L32.3438 23.9063C33.1172 23.9063 33.75 23.2777 33.75 22.5C33.75 21.7223 33.1172 21.0938 32.3438 21.0938L17.4516 21.0938L23.2594 15.2986C23.8079 14.7487 23.8079 13.8586 23.2594 13.3102C22.6969 12.7603 21.8109 12.7603 21.2625 13.3102L13.3031 21.2639Z" fill="#040774"/>
</g>
<defs>
<clipPath id="clip0_744_46">
<rect width="45" height="45" fill="white" transform="matrix(0 -1 1 0 0 45)"/>
</clipPath>
</defs>
</svg>
