<svg width="32" height="32" viewBox="0 0 32 32" fill="none" xmlns="http://www.w3.org/2000/svg">
<g clip-path="url(#clip0_872_30)">
<path fill-rule="evenodd" clip-rule="evenodd" d="M16 2C23.732 2 30 8.27 30 16C30 23.73 23.732 30 16 30C8.268 30 2 23.73 2 16C2 8.27 8.268 2 16 2ZM16 32C24.837 32 32 24.84 32 16C32 7.16 24.837 0 16 0C7.163 0 0 7.16 0 16C0 24.84 7.163 32 16 32ZM15.121 22.54C15.361 22.78 15.689 22.85 16 22.79C16.311 22.85 16.639 22.78 16.879 22.54L22.535 16.88C22.926 16.49 22.926 15.86 22.535 15.46C22.146 15.07 21.512 15.07 21.121 15.46L17 19.59L17 9C17 8.45 16.553 8 16 8C15.447 8 15 8.45 15 9L15 19.59L10.879 15.46C10.488 15.07 9.855 15.07 9.465 15.46C9.074 15.86 9.074 16.49 9.465 16.88L15.121 22.54Z" fill="#B0C1E4"/>
</g>
<defs>
<clipPath id="clip0_872_30">
<rect width="32" height="32" fill="white" transform="matrix(-1 0 0 -1 32 32)"/>
</clipPath>
</defs>
</svg>
