<svg width="17" height="16" viewBox="0 0 17 16" fill="none" xmlns="http://www.w3.org/2000/svg">
<path d="M8.33734 10.2858C9.10836 10.2858 9.76309 10.016 10.3015 9.47626C10.84 8.93655 11.1092 8.28118 11.1092 7.51015C11.1092 6.73913 10.8393 6.0844 10.2996 5.54596C9.75989 5.00752 9.10452 4.73831 8.33349 4.73831C7.56247 4.73831 6.90774 5.00817 6.3693 5.54789C5.83087 6.0876 5.56165 6.74297 5.56165 7.514C5.56165 8.28502 5.83151 8.93975 6.37123 9.47819C6.91094 10.0166 7.56631 10.2858 8.33734 10.2858ZM8.33158 9.3395C7.8229 9.3395 7.39179 9.16146 7.03827 8.80539C6.68475 8.4493 6.50799 8.01692 6.50799 7.50824C6.50799 6.99955 6.68603 6.56845 7.04211 6.21493C7.39819 5.86141 7.83057 5.68465 8.33925 5.68465C8.84794 5.68465 9.27904 5.86269 9.63256 6.21876C9.98608 6.57485 10.1628 7.00723 10.1628 7.51591C10.1628 8.0246 9.9848 8.4557 9.62873 8.80922C9.27264 9.16274 8.84026 9.3395 8.33158 9.3395ZM8.33542 12.407C6.7473 12.407 5.31146 11.9555 4.02792 11.0527C2.74437 10.1499 1.78715 8.96966 1.15625 7.51207C1.78715 6.05449 2.74437 4.87427 4.02792 3.97144C5.31146 3.0686 6.7473 2.61719 8.33542 2.61719C9.92354 2.61719 11.3594 3.0686 12.6429 3.97144C13.9265 4.87427 14.8837 6.05449 15.5146 7.51207C14.8837 8.96966 13.9265 10.1499 12.6429 11.0527C11.3594 11.9555 9.92354 12.407 8.33542 12.407ZM8.33266 11.428C9.65068 11.428 10.8617 11.0717 11.9658 10.3593C13.0699 9.64679 13.9101 8.69772 14.4867 7.51207C13.9101 6.32642 13.0708 5.37736 11.9685 4.66488C10.8663 3.9524 9.65618 3.59616 8.33817 3.59616C7.02016 3.59616 5.80911 3.9524 4.70504 4.66488C3.60097 5.37736 2.75525 6.32642 2.16786 7.51207C2.75525 8.69772 3.60005 9.64679 4.70229 10.3593C5.80453 11.0717 7.01465 11.428 8.33266 11.428Z" fill="#624C79"/>
</svg>
