<svg width="75" height="75" viewBox="0 0 75 75" fill="none" xmlns="http://www.w3.org/2000/svg">
<path d="M73.357 45.1522L68.4081 38.0843C67.3132 36.5429 66.3497 33.5728 66.3497 31.7682V24.7378C66.3497 11.0907 53.4299 0 37.5758 0C21.678 0.0375955 8.75819 11.0907 8.75819 24.7378V31.7306C8.75819 33.5352 7.79468 36.5053 6.74358 38.0467L1.79464 45.1146C-0.0885858 47.8591 -0.526545 50.9795 0.655945 53.6864C1.83843 56.4308 4.50998 58.6114 8.01366 59.5889C12.7436 60.9423 17.5174 61.9198 22.3787 62.6341C22.8605 62.7093 23.3422 62.7469 23.824 62.8221C24.4371 62.8973 25.0941 62.9725 25.751 63.0477C26.8897 63.198 28.0284 63.3108 29.2107 63.386C31.9699 63.6116 34.7728 63.7244 37.5758 63.7244C40.3349 63.7244 43.0941 63.6116 45.8094 63.386C46.8167 63.3108 47.824 63.2356 48.7875 63.1228C49.5758 63.0476 50.3642 62.9725 51.1525 62.8597C51.6343 62.8221 52.116 62.7469 52.5978 62.6717C57.5029 61.995 62.3643 60.9423 67.0942 59.5889C70.4665 58.6114 73.0505 56.4309 74.2767 53.6488C75.503 50.8291 75.1527 47.7463 73.357 45.1522ZM40.7729 29.8885C40.7729 31.4675 39.2838 32.7457 37.4444 32.7457C35.6049 32.7457 34.1159 31.4675 34.1159 29.8885V18.2338C34.1159 16.6548 35.6049 15.3765 37.4444 15.3765C39.2838 15.3765 40.7729 16.6548 40.7729 18.2338V29.8885Z" fill="#BB1318" stroke="#BB1318" stroke-width="0.00256"/>
<path d="M49.8844 67.5186C48.045 71.8796 43.1836 75 37.4901 75C34.0303 75 30.6142 73.797 28.2054 71.6541C26.8039 70.5262 25.7528 69.0224 25.1396 67.481C25.709 67.5561 26.2783 67.5937 26.8915 67.6689C27.8988 67.7817 28.9499 67.8945 30.001 67.9697C32.4974 68.1577 35.0376 68.2705 37.5777 68.2705C40.0741 68.2705 42.5705 68.1577 45.023 67.9697C45.9427 67.8945 46.8625 67.8569 47.7384 67.7441C48.4391 67.6689 49.1399 67.5937 49.8844 67.5186Z" fill="#BB1318" stroke="#BB1318" stroke-width="0.00256"/>
</svg>
