<svg width="75" height="75" viewBox="0 0 75 75" fill="none" xmlns="http://www.w3.org/2000/svg">
<g clip-path="url(#clip0_266_169)">
<path d="M37.5 -0.00439453C34.1851 -0.00439453 31.0098 0.746781 28.9177 3.12793C26.8257 5.50908 26.7585 8.04785 26.6374 9.59253C26.5164 11.1372 26.4156 12.0987 26.1821 12.6943C25.9486 13.2899 25.756 13.745 24.2952 14.5898C22.8343 15.4347 22.3451 15.3738 21.7134 15.2786C21.0817 15.1833 20.2004 14.7904 18.8044 14.123C17.4084 13.4557 15.1794 12.2443 12.0747 12.8687C8.97007 13.493 6.73288 15.8719 5.07542 18.7476C3.41797 21.6233 2.48009 24.7536 3.49267 27.759C4.50524 30.7645 6.66673 32.0926 7.94165 32.97C9.21656 33.8473 9.99708 34.4152 10.3953 34.9155C10.7934 35.4159 11.0908 35.8103 11.0908 37.5C11.0908 39.1897 10.7934 39.5841 10.3953 40.0845C9.99708 40.5848 9.21656 41.1527 7.94165 42.03C6.66673 42.9074 4.50524 44.2355 3.49267 47.241C2.48009 50.2464 3.41797 53.3768 5.07542 56.2524C6.73288 59.1281 8.97007 61.507 12.0747 62.1313C15.1794 62.7557 17.4084 61.5443 18.8044 60.877C20.2004 60.2096 21.0817 59.8167 21.7134 59.7214C22.3451 59.6262 22.8343 59.5653 24.2952 60.4102C25.756 61.255 25.9486 61.7101 26.1821 62.3057C26.4156 62.9013 26.5164 63.8628 26.6374 65.4075C26.7585 66.9521 26.8257 69.4909 28.9177 71.8721C31.0098 74.2532 34.1851 75.0044 37.5 75.0044C40.8149 75.0044 43.9902 74.2532 46.0823 71.8721C48.1743 69.4909 48.2415 66.9521 48.3625 65.4075C48.4836 63.8628 48.5844 62.9013 48.8179 62.3057C49.0514 61.7101 49.244 61.255 50.7048 60.4102C52.1657 59.5653 52.6549 59.6262 53.2866 59.7214C53.9183 59.8167 54.7996 60.2096 56.1956 60.877C57.5915 61.5443 59.8206 62.7557 62.9253 62.1313C66.0299 61.507 68.2671 59.1281 69.9246 56.2524C71.582 53.3768 72.5199 50.2464 71.5073 47.241C70.4947 44.2355 68.3333 42.9074 67.0583 42.03C65.7834 41.1527 65.0029 40.5848 64.6047 40.0845C64.2066 39.5841 63.9092 39.1897 63.9092 37.5C63.9092 35.8103 64.2066 35.4159 64.6047 34.9155C65.0029 34.4152 65.7834 33.8473 67.0583 32.97C68.3333 32.0926 70.4947 30.7645 71.5073 27.759C72.5199 24.7536 71.582 21.6233 69.9246 18.7476C68.2671 15.8719 66.0299 13.493 62.9253 12.8687C59.8206 12.2443 57.5915 13.4557 56.1956 14.123C54.7996 14.7904 53.9183 15.1833 53.2866 15.2786C52.6549 15.3738 52.1657 15.4347 50.7048 14.5898C49.244 13.745 49.0514 13.2899 48.8179 12.6943C48.5844 12.0987 48.4836 11.1372 48.3625 9.59253C48.2415 8.04785 48.1743 5.50908 46.0823 3.12793C43.9902 0.746781 40.8149 -0.00439453 37.5 -0.00439453ZM37.5029 21.2476C46.5277 21.2476 53.7524 28.4708 53.7524 37.5C53.7524 46.5292 46.5277 53.7524 37.5029 53.7524C28.4782 53.7524 21.2534 46.5292 21.2534 37.5C21.2534 28.4708 28.4782 21.2476 37.5029 21.2476Z" fill="#040774"/>
<path d="M37.5001 27.5013C32.0229 27.5013 27.5 32.027 27.5 37.5C27.5 42.9731 32.0229 47.4987 37.5001 47.4987C42.9772 47.4987 47.5 42.9731 47.5 37.5C47.5 32.027 42.9772 27.5013 37.5001 27.5013Z" fill="#BB1318"/>
</g>
<defs>
<clipPath id="clip0_266_169">
<rect width="75" height="75" fill="white"/>
</clipPath>
</defs>
</svg>
