<svg width="75" height="75" viewBox="0 0 75 75" fill="none" xmlns="http://www.w3.org/2000/svg">
<g clip-path="url(#clip0_427_392)">
<path d="M37.5 75C58.2107 75 75 58.2107 75 37.5C75 16.7893 58.2107 0 37.5 0C16.7893 0 0 16.7893 0 37.5C0 58.2107 16.7893 75 37.5 75Z" fill="#D65C5C" stroke="black" stroke-width="0.00256"/>
<path d="M74.9999 37.5002C74.9999 34.556 74.6598 31.6911 74.0181 28.9423L57.9651 12.9067L13.2378 57.3896L30.0189 74.2529C32.4365 74.7423 34.938 75.0002 37.5002 75.0002C58.2105 75.0002 74.9999 58.2108 74.9999 37.5002Z" fill="#BB1318" stroke="black" stroke-width="0.00256"/>
<path d="M42.9717 58.3335H15.3624C13.7818 58.3335 12.5005 57.0522 12.5005 55.4716V23.6954C12.5005 22.1148 13.7818 20.8335 15.3624 20.8335H42.9717C44.5523 20.8335 45.8336 22.1148 45.8336 23.6954V55.4714C45.8336 57.0522 44.5523 58.3335 42.9717 58.3335Z" fill="#D0D5D9" stroke="black" stroke-width="0.00256"/>
<path d="M41.6665 25H16.6665V50H41.6665V25Z" fill="#040774" stroke="black" stroke-width="0.00256"/>
<path d="M42.9717 20.8335H28.3252V58.3335H42.9717C44.5522 58.3335 45.8335 57.0522 45.8335 55.4716V23.6954C45.8335 22.1148 44.5522 20.8335 42.9717 20.8335Z" fill="#BCBFC1" stroke="black" stroke-width="0.00256"/>
<path d="M55.8994 50.4419H27.4343C25.811 50.4419 24.4951 49.126 24.4951 47.5028V14.9972C24.4951 13.374 25.811 12.0581 27.4343 12.0581H55.8997C57.5229 12.0581 58.8388 13.374 58.8388 14.9972V47.5031C58.8386 49.126 57.5226 50.4419 55.8994 50.4419Z" fill="#ECF0F1" stroke="black" stroke-width="0.00256"/>
<path d="M55.8993 12.0581H41.6245V50.4419H55.8993C57.5225 50.4419 58.8384 49.126 58.8384 47.5028V14.9972C58.8384 13.374 57.5225 12.0581 55.8993 12.0581Z" fill="#D0D5D9" stroke="black" stroke-width="0.00256"/>
<path d="M54.5457 16.3228H28.7881V41.9119H54.5457V16.3228Z" fill="#507AB5" stroke="black" stroke-width="0.00256"/>
<path d="M54.5455 16.3228H41.6248V41.9119H54.5455V16.3228Z" fill="#040774" stroke="black" stroke-width="0.00256"/>
</g>
<defs>
<clipPath id="clip0_427_392">
<rect width="75" height="75" fill="white"/>
</clipPath>
</defs>
</svg>
